<svg width="20" height="20" viewBox="0 0 20 20" fill="none" xmlns="http://www.w3.org/2000/svg">
<path d="M9.99984 15.8332C13.2215 15.8332 15.8332 13.2215 15.8332 9.99984C15.8332 6.77818 13.2215 4.1665 9.99984 4.1665C6.77818 4.1665 4.1665 6.77818 4.1665 9.99984C4.1665 13.2215 6.77818 15.8332 9.99984 15.8332Z" stroke="#FF8500" stroke-width="1.66667"/>
<path d="M10 12.5C11.3807 12.5 12.5 11.3807 12.5 10C12.5 8.61929 11.3807 7.5 10 7.5C8.61929 7.5 7.5 8.61929 7.5 10C7.5 11.3807 8.61929 12.5 10 12.5Z" stroke="#FF8500" stroke-width="1.66667"/>
<path d="M11.6665 8.3335L16.6665 3.3335M16.6665 5.8335V3.3335H14.1665" stroke="#FF8500" stroke-width="1.66667" stroke-linecap="round"/>
</svg>
