<svg width="38" height="38" viewBox="0 0 38 38" fill="none" xmlns="http://www.w3.org/2000/svg">
<g clip-path="url(#clip0_143_3012)">
<path d="M19 38C29.4934 38 38 29.4934 38 19C38 8.50659 29.4934 0 19 0C8.50659 0 0 8.50659 0 19C0 29.4934 8.50659 38 19 38Z" fill="#0E3044"/>
<path d="M25 13H13C11.3431 13 10 14.3431 10 16V22C10 23.6569 11.3431 25 13 25H25C26.6569 25 28 23.6569 28 22V16C28 14.3431 26.6569 13 25 13Z" fill="white"/>
<path d="M17 16L23 19L17 22V16Z" fill="#0E3044"/>
</g>
<defs>
<clipPath id="clip0_143_3012">
<rect width="38" height="38" fill="white"/>
</clipPath>
</defs>
</svg>
